<svg version="1.1" id="Layer_1" xmlns="http://www.w3.org/2000/svg" xmlns:xlink="http://www.w3.org/1999/xlink" x="0px" y="0px"
	 width="100%" viewBox="0 0 352 368" enable-background="new 0 0 352 368" xml:space="preserve">
<path fill="#999999" opacity="1.000000" stroke="none" 
	d="M290.365051,203.866104  C289.506805,225.286255 272.319916,247.413773 250.846054,255.248886 
	C244.872894,257.428314 238.744797,259.137482 232.390701,259.214020 
	C228.387711,259.262268 227.231247,260.751984 227.273346,264.557373 
	C227.428177,278.552490 227.364166,292.550323 227.332626,306.547058 
	C227.293045,324.120605 217.545364,335.821747 200.179916,338.704407 
	C196.943161,339.241730 196.253479,341.140533 195.444916,343.550293 
	C190.975784,356.869781 178.454132,363.480225 165.417664,359.121979 
	C157.666428,356.530670 152.462250,351.119446 150.339096,343.125946 
	C149.517212,340.031586 148.314484,338.639557 144.685562,338.406647 
	C131.140640,337.537384 118.992279,323.326599 118.872940,308.593811 
	C118.755531,294.098083 118.707642,279.598663 118.920967,265.105194 
	C118.984505,260.788391 117.998329,258.988953 113.295311,257.760925 
	C91.860077,252.163910 78.053535,238.521271 72.663361,216.784973 
	C72.095398,214.494659 71.428398,212.367294 69.459328,210.767654 
	C54.858612,198.906219 52.877460,183.017715 57.029491,166.332443 
	C64.038857,138.164734 85.677834,120.801857 114.767204,118.750328 
	C118.256950,118.504211 118.856728,116.934273 118.844116,114.014793 
	C118.783661,100.018288 119.236839,86.006348 118.725632,72.028481 
	C118.136772,55.927219 130.163528,40.371700 145.502304,39.509830 
	C149.106598,39.307312 148.807159,36.169716 149.524643,34.024914 
	C152.495224,25.144737 158.655899,19.647585 167.623749,17.967205 
	C176.167038,16.366379 183.775528,19.086138 189.737411,25.590757 
	C192.599731,28.713638 194.223709,32.598564 195.163895,36.671810 
	C195.630112,38.691566 196.456146,39.339615 198.492554,39.432171 
	C214.884018,40.177151 227.108978,52.719891 227.299316,69.183289 
	C227.468842,83.844597 227.435287,98.510605 227.266876,113.171951 
	C227.220749,117.186478 227.957611,118.970604 232.572266,120.113884 
	C253.256561,125.238403 267.110199,138.121231 273.061310,158.807022 
	C274.297363,163.103607 276.071716,166.524551 279.424805,169.626633 
	C286.826324,176.474045 290.930695,185.001480 290.399414,195.388763 
	C290.263367,198.048172 290.371246,200.720062 290.365051,203.866104 
M162.500961,277.711060 
	C179.410721,278.925659 196.762115,274.410034 213.797104,282.343994 
	C213.797104,275.507751 213.581543,269.372284 213.874374,263.261139 
	C214.063385,259.316559 212.824051,257.465546 208.890732,256.119843 
	C190.710876,249.900024 178.014084,238.003479 171.153809,219.684875 
	C166.440628,207.099457 166.863174,194.215942 166.866425,181.250061 
	C166.872787,156.000763 147.795639,134.693222 123.108307,132.373886 
	C97.531013,129.970932 74.477745,146.499634 69.755875,171.258759 
	C67.621048,182.452713 68.501785,193.229691 78.781540,201.059937 
	C84.305054,205.267273 90.757385,206.370087 97.158760,206.481491 
	C114.665154,206.786163 132.864395,224.231827 132.419510,244.373367 
	C132.195114,254.533173 132.389954,264.702576 132.425644,274.867523 
	C132.433716,277.167908 132.191360,279.538818 133.981476,282.109192 
	C142.460205,276.737823 152.051453,277.731567 162.500961,277.711060 
M177.288010,162.698547 
	C179.848938,174.014389 179.280273,185.515091 179.346024,196.982773 
	C179.477356,219.888412 196.107056,240.365250 218.055847,244.717407 
	C241.715103,249.408737 264.582184,237.693802 273.755615,216.052322 
	C276.783386,208.909332 278.535858,201.356995 277.355957,193.633286 
	C275.241547,179.792389 265.840118,172.594513 249.138840,171.343307 
	C229.165649,169.846985 213.911102,153.548492 213.821503,133.556717 
	C213.773712,122.894966 213.830795,112.232674 213.762817,101.571129 
	C213.751663,99.822426 214.334793,97.923523 213.750992,97.190170 
	C186.349335,101.831200 159.709274,102.176605 132.769363,96.988861 
	C131.979202,103.397148 132.641251,110.522102 132.811829,117.638405 
	C132.877441,120.375534 134.993790,121.018150 137.117767,121.751801 
	C156.980026,128.612442 170.460663,141.875107 177.288010,162.698547 
M142.712494,61.556541 
	C143.852448,58.349670 149.756607,58.240231 148.321884,53.228008 
	C139.459305,53.383324 132.830383,60.120373 132.431137,69.181358 
	C132.057343,77.665192 139.701691,86.425789 148.383209,86.572876 
	C164.870300,86.852211 181.370178,86.882401 197.855499,86.553314 
	C206.492737,86.380905 213.462906,78.636177 213.631912,70.144363 
	C213.805328,61.431152 207.386597,53.771271 198.986252,52.653721 
	C197.663879,52.477798 196.191956,52.044472 195.591812,53.748928 
	C195.127640,55.067242 195.311188,56.413635 196.529312,57.359688 
	C197.447617,58.072891 198.499069,58.627754 199.360077,59.399456 
	C203.809250,63.387131 204.594971,69.954834 201.258545,74.818138 
	C197.791367,79.872040 191.757355,81.613602 186.368027,79.115898 
	C178.374603,75.411324 176.949112,65.386879 183.536346,59.214836 
	C185.047913,57.798527 187.507233,56.799366 186.448700,54.067635 
	C185.358261,51.253506 182.728317,52.432648 180.765045,52.382298 
	C174.605347,52.224342 168.438339,52.266098 162.275940,52.354519 
	C160.573959,52.378937 158.362579,51.596092 157.472763,53.901978 
	C156.543549,56.310005 158.452988,57.403614 159.972321,58.748478 
	C164.318390,62.595444 165.621323,67.741837 163.685379,72.711227 
	C161.194962,79.103928 154.684525,81.856125 148.121857,79.290504 
	C141.514481,76.707397 139.151047,69.751801 142.712494,61.556541 
M197.943283,291.351746 
	C181.610535,291.342987 165.276978,291.233887 148.945358,291.365082 
	C139.918320,291.437561 132.176483,299.769348 132.425858,308.712891 
	C132.676559,317.704285 140.345093,325.083832 149.150665,324.771484 
	C150.662506,321.745087 148.192688,320.775543 146.429214,319.325439 
	C141.638168,315.385895 140.329315,309.235016 143.066589,304.062256 
	C145.592117,299.289673 151.679108,296.601624 156.640335,298.068054 
	C162.723419,299.866089 165.570236,304.223511 165.370926,310.890198 
	C165.246750,315.043488 162.736877,317.598053 159.886459,319.945404 
	C158.550171,321.045898 158.010010,322.229736 158.377121,323.838928 
	C158.836685,325.853302 160.520416,325.651428 161.987534,325.656616 
	C169.320480,325.682373 176.653610,325.671661 183.986633,325.655579 
	C185.336044,325.652649 186.800461,325.620667 187.338348,324.076843 
	C187.862640,322.572052 187.653549,321.219482 186.200394,320.101807 
	C184.893311,319.096497 183.670517,317.900757 182.671051,316.590332 
	C178.353043,310.928864 180.170593,302.632629 186.346619,299.439178 
	C192.641068,296.184479 198.778641,297.733612 202.390976,303.488831 
	C205.809189,308.934784 204.650192,315.235504 199.275360,319.423370 
	C197.345428,320.927063 195.413589,322.170166 197.039871,325.085052 
	C200.166855,325.264221 202.963638,324.489105 205.564728,322.821198 
	C211.688644,318.894257 214.901001,312.280792 213.444412,305.244598 
	C211.817078,297.383453 206.503418,293.032715 197.943283,291.351746 
M227.479752,137.194839 
	C231.830582,152.463562 245.595016,161.732407 258.010956,157.754272 
	C255.241440,147.134705 240.833603,134.342438 230.647614,133.366806 
	C228.232758,133.135513 227.200089,134.050354 227.479752,137.194839 
M117.237061,244.553024 
	C119.378021,243.641556 118.739502,241.784027 118.540154,240.247543 
	C116.811897,226.926636 101.485832,216.744263 87.795670,220.211441 
	C93.403297,233.194046 102.882103,241.286682 117.237061,244.553024 
M164.760895,28.105806 
	C160.808868,30.517954 157.968094,33.668354 157.450104,39.638573 
	C167.313110,38.781158 176.833389,39.142315 186.556183,39.149143 
	C183.992676,28.172653 175.525238,23.929573 164.760895,28.105806 
M171.492142,338.910889 
	C167.296814,339.263763 162.959885,338.097656 158.866119,339.804382 
	C160.258545,347.469727 165.762146,351.783844 173.671448,351.648834 
	C180.458389,351.533051 186.130844,346.449341 187.150574,338.908783 
	C182.216583,338.908783 177.344711,338.908783 171.492142,338.910889 
M150.455261,309.692444 
	C150.531479,312.091370 151.981995,312.838318 154.105408,312.605499 
	C155.600784,312.441559 156.467804,311.522827 156.614761,309.993896 
	C156.754898,308.535950 156.320999,307.314697 154.879028,306.776855 
	C152.686172,305.959045 151.471191,307.226105 150.455261,309.692444 
M191.703400,312.628082 
	C193.723663,312.706482 195.387711,312.180756 195.476074,309.812897 
	C195.530151,308.363617 194.518646,307.386047 193.277588,306.807953 
	C191.917007,306.174164 190.623611,306.465485 189.882263,307.811005 
	C188.879257,309.631500 189.091400,311.283539 191.703400,312.628082 
M151.086105,65.563889 
	C149.149292,66.747719 148.880020,68.355721 150.157089,70.111732 
	C150.959671,71.215309 152.162415,71.854866 153.605225,71.302101 
	C154.984573,70.773651 155.680176,69.668602 155.558899,68.223076 
	C155.365921,65.922813 153.819687,65.279045 151.086105,65.563889 
M190.057709,71.155571 
	C192.549820,71.943947 193.797058,70.533989 194.452072,68.467216 
	C194.840897,67.240410 194.188278,66.181831 193.022369,65.635597 
	C191.751236,65.040077 190.371811,64.993813 189.327698,66.013298 
	C187.721390,67.581726 188.038696,69.237701 190.057709,71.155571 
z"/>
</svg>